<svg width="55" height="39" viewBox="0 0 55 39" fill="none" xmlns="http://www.w3.org/2000/svg">
<mask id="path-1-outside-1_162_881" maskUnits="userSpaceOnUse" x="0" y="0" width="55" height="39" fill="black">
<rect fill="white" width="55" height="39"/>
<path d="M13.024 37.72C10.784 37.72 8.784 37.216 7.024 36.208C5.28 35.184 3.896 33.8 2.872 32.056C1.864 30.296 1.36 28.296 1.36 26.056V13.384C1.36 11.144 1.864 9.144 2.872 7.384C3.896 5.624 5.28 4.24 7.024 3.232C8.784 2.224 10.784 1.72 13.024 1.72C15.264 1.72 17.264 2.224 19.024 3.232C20.784 4.24 22.168 5.624 23.176 7.384C24.184 9.144 24.688 11.144 24.688 13.384V26.056C24.688 28.296 24.184 30.296 23.176 32.056C22.168 33.8 20.784 35.184 19.024 36.208C17.264 37.216 15.264 37.72 13.024 37.72ZM13.024 33.616C14.384 33.616 15.616 33.288 16.72 32.632C17.824 31.976 18.704 31.096 19.36 29.992C20.016 28.872 20.344 27.64 20.344 26.296V13.12C20.344 11.76 20.016 10.528 19.36 9.424C18.704 8.32 17.824 7.44 16.72 6.784C15.616 6.128 14.384 5.8 13.024 5.8C11.68 5.8 10.448 6.128 9.328 6.784C8.224 7.44 7.344 8.32 6.688 9.424C6.032 10.528 5.704 11.76 5.704 13.12V26.296C5.704 27.64 6.032 28.872 6.688 29.992C7.344 31.096 8.224 31.976 9.328 32.632C10.448 33.288 11.68 33.616 13.024 33.616ZM30.4469 36.976L30.4709 33.136L45.8069 19.336C47.0869 18.184 47.9429 17.096 48.3749 16.072C48.8229 15.032 49.0469 13.968 49.0469 12.88C49.0469 11.552 48.7429 10.352 48.1349 9.28C47.5269 8.208 46.6949 7.36 45.6389 6.736C44.5989 6.112 43.4149 5.8 42.0869 5.8C40.7109 5.8 39.4869 6.128 38.4149 6.784C37.3429 7.424 36.4949 8.28 35.8709 9.352C35.2629 10.424 34.9669 11.592 34.9829 12.856H30.6149C30.6149 10.68 31.1189 8.76 32.1269 7.096C33.1349 5.416 34.5029 4.104 36.2309 3.16C37.9749 2.2 39.9509 1.72 42.1589 1.72C44.3029 1.72 46.2229 2.216 47.9189 3.208C49.6149 4.184 50.9509 5.52 51.9269 7.216C52.9189 8.896 53.4149 10.8 53.4149 12.928C53.4149 14.432 53.2229 15.736 52.8389 16.84C52.4709 17.944 51.8949 18.968 51.1109 19.912C50.3269 20.84 49.3429 21.832 48.1589 22.888L35.4149 34.336L34.8629 32.896H53.4149V36.976H30.4469Z"/>
</mask>
<path d="M7.024 36.208L6.51764 37.0704L6.52701 37.0758L7.024 36.208ZM2.872 32.056L2.00419 32.553L2.00966 32.5623L2.872 32.056ZM2.872 7.384L2.00763 6.88109L2.00424 6.88701L2.872 7.384ZM7.024 3.232L6.52701 2.36423L6.52359 2.36621L7.024 3.232ZM23.176 7.384L22.3082 7.88099V7.88099L23.176 7.384ZM23.176 32.056L24.0418 32.5564L24.0438 32.553L23.176 32.056ZM19.024 36.208L19.521 37.0758L19.5269 37.0723L19.024 36.208ZM16.72 32.632L16.2092 31.7723H16.2092L16.72 32.632ZM19.36 29.992L20.2197 30.5028L20.2229 30.4974L19.36 29.992ZM9.328 6.784L8.82259 5.9211L8.81717 5.92431L9.328 6.784ZM6.688 29.992L5.8251 30.4974L5.82832 30.5028L6.688 29.992ZM9.328 32.632L8.81716 33.4917L8.8226 33.4949L9.328 32.632ZM13.024 37.72V36.72C10.9397 36.72 9.11427 36.2528 7.52099 35.3402L7.024 36.208L6.52701 37.0758C8.45373 38.1792 10.6283 38.72 13.024 38.72V37.72ZM7.024 36.208L7.53033 35.3457C5.93342 34.408 4.67198 33.1466 3.73434 31.5497L2.872 32.056L2.00966 32.5623C3.12003 34.4534 4.62658 35.96 6.51767 37.0703L7.024 36.208ZM2.872 32.056L3.73976 31.559C2.82724 29.9657 2.36 28.1403 2.36 26.056H1.36H0.36C0.36 28.4517 0.900761 30.6263 2.00424 32.553L2.872 32.056ZM1.36 26.056H2.36V13.384H1.36H0.36V26.056H1.36ZM1.36 13.384H2.36C2.36 11.2997 2.82724 9.47427 3.73976 7.88099L2.872 7.384L2.00424 6.88701C0.900761 8.81372 0.36 10.9883 0.36 13.384H1.36ZM2.872 7.384L3.73635 7.88689C4.67372 6.27578 5.93298 5.0176 7.52441 4.09779L7.024 3.232L6.52359 2.36621C4.62702 3.46239 3.11828 4.97221 2.00765 6.8811L2.872 7.384ZM7.024 3.232L7.52099 4.09976C9.11427 3.18724 10.9397 2.72 13.024 2.72V1.72V0.719999C10.6283 0.719999 8.45373 1.26076 6.52701 2.36424L7.024 3.232ZM13.024 1.72V2.72C15.1083 2.72 16.9337 3.18724 18.527 4.09976L19.024 3.232L19.521 2.36424C17.5943 1.26076 15.4197 0.719999 13.024 0.719999V1.72ZM19.024 3.232L18.527 4.09976C20.1326 5.01934 21.3887 6.27535 22.3082 7.88099L23.176 7.384L24.0438 6.88701C22.9473 4.97264 21.4354 3.46065 19.521 2.36424L19.024 3.232ZM23.176 7.384L22.3082 7.88099C23.2208 9.47427 23.688 11.2997 23.688 13.384H24.688H25.688C25.688 10.9883 25.1472 8.81372 24.0438 6.88701L23.176 7.384ZM24.688 13.384H23.688V26.056H24.688H25.688V13.384H24.688ZM24.688 26.056H23.688C23.688 28.1403 23.2208 29.9657 22.3082 31.559L23.176 32.056L24.0438 32.553C25.1472 30.6263 25.688 28.4517 25.688 26.056H24.688ZM23.176 32.056L22.3102 31.5556C21.3904 33.147 20.1322 34.4063 18.5211 35.3437L19.024 36.208L19.5269 37.0723C21.4358 35.9617 22.9456 34.453 24.0418 32.5564L23.176 32.056ZM19.024 36.208L18.527 35.3402C16.9337 36.2528 15.1083 36.72 13.024 36.72V37.72V38.72C15.4197 38.72 17.5943 38.1792 19.521 37.0758L19.024 36.208ZM13.024 33.616V34.616C14.5527 34.616 15.963 34.245 17.2308 33.4917L16.72 32.632L16.2092 31.7723C15.269 32.331 14.2153 32.616 13.024 32.616V33.616ZM16.72 32.632L17.2308 33.4917C18.4784 32.7504 19.4784 31.7504 20.2197 30.5028L19.36 29.992L18.5003 29.4812C17.9296 30.4416 17.1696 31.2016 16.2092 31.7723L16.72 32.632ZM19.36 29.992L20.2229 30.4974C20.9719 29.2185 21.344 27.8111 21.344 26.296H20.344H19.344C19.344 27.4689 19.0601 28.5255 18.4971 29.4866L19.36 29.992ZM20.344 26.296H21.344V13.12H20.344H19.344V26.296H20.344ZM20.344 13.12H21.344C21.344 11.5912 20.973 10.181 20.2197 8.91317L19.36 9.424L18.5003 9.93483C19.059 10.875 19.344 11.9287 19.344 13.12H20.344ZM19.36 9.424L20.2197 8.91317C19.4784 7.66558 18.4784 6.66564 17.2308 5.92431L16.72 6.784L16.2092 7.64368C17.1696 8.21436 17.9296 8.97442 18.5003 9.93483L19.36 9.424ZM16.72 6.784L17.2308 5.92431C15.963 5.17099 14.5527 4.8 13.024 4.8V5.8V6.8C14.2153 6.8 15.269 7.08501 16.2092 7.64368L16.72 6.784ZM13.024 5.8V4.8C11.5089 4.8 10.1015 5.17206 8.8226 5.92112L9.328 6.784L9.8334 7.64688C10.7945 7.08394 11.8511 6.8 13.024 6.8V5.8ZM9.328 6.784L8.81717 5.92431C7.56958 6.66564 6.56964 7.66558 5.82832 8.91317L6.688 9.424L7.54768 9.93483C8.11836 8.97442 8.87842 8.21436 9.83883 7.64368L9.328 6.784ZM6.688 9.424L5.82832 8.91317C5.07499 10.181 4.704 11.5912 4.704 13.12H5.704H6.704C6.704 11.9287 6.98901 10.875 7.54768 9.93483L6.688 9.424ZM5.704 13.12H4.704V26.296H5.704H6.704V13.12H5.704ZM5.704 26.296H4.704C4.704 27.8111 5.07606 29.2185 5.82512 30.4974L6.688 29.992L7.55088 29.4866C6.98794 28.5255 6.704 27.4689 6.704 26.296H5.704ZM6.688 29.992L5.82832 30.5028C6.56964 31.7504 7.56958 32.7504 8.81717 33.4917L9.328 32.632L9.83883 31.7723C8.87842 31.2016 8.11836 30.4416 7.54768 29.4812L6.688 29.992ZM9.328 32.632L8.8226 33.4949C10.1015 34.2439 11.5089 34.616 13.024 34.616V33.616V32.616C11.8511 32.616 10.7945 32.3321 9.8334 31.7691L9.328 32.632ZM30.4469 36.976L29.4469 36.9697C29.4452 37.236 29.5498 37.492 29.7376 37.6809C29.9253 37.8698 30.1806 37.976 30.4469 37.976V36.976ZM30.4709 33.136L29.802 32.3926C29.5928 32.5808 29.4727 32.8484 29.4709 33.1297L30.4709 33.136ZM45.8069 19.336L46.4758 20.0793L46.4758 20.0793L45.8069 19.336ZM48.3749 16.072L47.4564 15.6764L47.4535 15.6833L48.3749 16.072ZM48.1349 9.28L49.0047 8.78666L48.1349 9.28ZM45.6389 6.736L45.1244 7.59351L45.1301 7.59693L45.6389 6.736ZM38.4149 6.784L38.9275 7.64267L38.9368 7.63696L38.4149 6.784ZM35.8709 9.352L35.0066 8.8489L35.001 8.85866L35.8709 9.352ZM34.9829 12.856V13.856C35.2503 13.856 35.5066 13.7489 35.6944 13.5586C35.8823 13.3683 35.9862 13.1107 35.9828 12.8433L34.9829 12.856ZM30.6149 12.856H29.6149C29.6149 13.4083 30.0626 13.856 30.6149 13.856V12.856ZM32.1269 7.096L32.9822 7.61412L32.9844 7.61049L32.1269 7.096ZM36.2309 3.16L36.7103 4.03759L36.7131 4.03605L36.2309 3.16ZM47.9189 3.208L47.414 4.07121L47.4201 4.07473L47.9189 3.208ZM51.9269 7.216L51.0601 7.71481L51.0658 7.72445L51.9269 7.216ZM52.8389 16.84L51.8943 16.5114L51.8902 16.5238L52.8389 16.84ZM51.1109 19.912L51.8748 20.5574L51.8802 20.5509L51.1109 19.912ZM48.1589 22.888L47.4933 22.1417L47.4906 22.1441L48.1589 22.888ZM35.4149 34.336L34.4811 34.6939C34.599 35.0014 34.8606 35.2311 35.1806 35.3082C35.5007 35.3853 35.8382 35.2999 36.0831 35.0799L35.4149 34.336ZM34.8629 32.896V31.896C34.5336 31.896 34.2254 32.0581 34.0389 32.3294C33.8523 32.6007 33.8113 32.9465 33.9291 33.2539L34.8629 32.896ZM53.4149 32.896H54.4149C54.4149 32.3437 53.9672 31.896 53.4149 31.896V32.896ZM53.4149 36.976V37.976C53.9672 37.976 54.4149 37.5283 54.4149 36.976H53.4149ZM30.4469 36.976L31.4469 36.9823L31.4709 33.1423L30.4709 33.136L29.4709 33.1297L29.4469 36.9697L30.4469 36.976ZM30.4709 33.136L31.1398 33.8794L46.4758 20.0793L45.8069 19.336L45.138 18.5926L29.802 32.3926L30.4709 33.136ZM45.8069 19.336L46.4758 20.0793C47.811 18.8776 48.7844 17.6739 49.2962 16.4607L48.3749 16.072L47.4535 15.6833C47.1013 16.5181 46.3628 17.4903 45.1379 18.5927L45.8069 19.336ZM48.3749 16.072L49.2933 16.4676C49.7929 15.3079 50.0469 14.1096 50.0469 12.88H49.0469H48.0469C48.0469 13.8264 47.8529 14.7561 47.4565 15.6764L48.3749 16.072ZM49.0469 12.88H50.0469C50.0469 11.3929 49.7046 10.0207 49.0047 8.78666L48.1349 9.28L47.265 9.77334C47.7811 10.6833 48.0469 11.7111 48.0469 12.88H49.0469ZM48.1349 9.28L49.0047 8.78666C48.311 7.56345 47.3548 6.5884 46.1476 5.87507L45.6389 6.736L45.1301 7.59693C46.035 8.1316 46.7428 8.85255 47.265 9.77334L48.1349 9.28ZM45.6389 6.736L46.1534 5.87851C44.9434 5.15252 43.5784 4.8 42.0869 4.8V5.8V6.8C43.2514 6.8 44.2543 7.07147 45.1244 7.59349L45.6389 6.736ZM42.0869 5.8V4.8C40.5447 4.8 39.1368 5.16987 37.8929 5.93103L38.4149 6.784L38.9368 7.63696C39.837 7.08613 40.877 6.8 42.0869 6.8V5.8ZM38.4149 6.784L37.9023 5.92538C36.6858 6.65161 35.7164 7.62954 35.0066 8.84893L35.8709 9.352L36.7351 9.85507C37.2733 8.93045 37.9999 8.19639 38.9275 7.64262L38.4149 6.784ZM35.8709 9.352L35.001 8.85866C34.3033 10.0889 33.9648 11.4322 33.983 12.8687L34.9829 12.856L35.9828 12.8433C35.969 11.7518 36.2225 10.7591 36.7407 9.84534L35.8709 9.352ZM34.9829 12.856V11.856H30.6149V12.856V13.856H34.9829V12.856ZM30.6149 12.856H31.6149C31.6149 10.8405 32.0797 9.1039 32.9822 7.61412L32.1269 7.096L31.2716 6.57788C30.158 8.4161 29.6149 10.5195 29.6149 12.856H30.6149ZM32.1269 7.096L32.9844 7.61049C33.9004 6.08379 35.1375 4.89677 36.7103 4.03758L36.2309 3.16L35.7515 2.28241C33.8682 3.31122 32.3694 4.7482 31.2694 6.5815L32.1269 7.096ZM36.2309 3.16L36.7131 4.03605C38.2938 3.16596 40.1007 2.72 42.1589 2.72V1.72V0.719999C39.801 0.719999 37.656 1.23404 35.7486 2.28395L36.2309 3.16ZM42.1589 1.72V2.72C44.1421 2.72 45.885 3.17684 47.414 4.07119L47.9189 3.208L48.4238 2.34481C46.5608 1.25516 44.4636 0.719999 42.1589 0.719999V1.72ZM47.9189 3.208L47.4201 4.07473C48.9631 4.9627 50.1722 6.17175 51.0601 7.71478L51.9269 7.216L52.7936 6.71722C51.7296 4.86825 50.2666 3.4053 48.4177 2.34127L47.9189 3.208ZM51.9269 7.216L51.0658 7.72445C51.9587 9.23664 52.4149 10.9621 52.4149 12.928H53.4149H54.4149C54.4149 10.6379 53.8791 8.55536 52.788 6.70755L51.9269 7.216ZM53.4149 12.928H52.4149C52.4149 14.3506 52.2328 15.5385 51.8944 16.5115L52.8389 16.84L53.7834 17.1685C54.2129 15.9335 54.4149 14.5134 54.4149 12.928H53.4149ZM52.8389 16.84L51.8902 16.5238C51.5636 17.5037 51.0507 18.4193 50.3416 19.2731L51.1109 19.912L51.8802 20.5509C52.7391 19.5167 53.3782 18.3843 53.7876 17.1562L52.8389 16.84ZM51.1109 19.912L50.347 19.2666C49.6009 20.1498 48.6521 21.1081 47.4933 22.1417L48.1589 22.888L48.8245 23.6343C50.0336 22.5559 51.0529 21.5302 51.8748 20.5574L51.1109 19.912ZM48.1589 22.888L47.4906 22.1441L34.7466 33.5921L35.4149 34.336L36.0831 35.0799L48.8271 23.6319L48.1589 22.888ZM35.4149 34.336L36.3486 33.9781L35.7966 32.5381L34.8629 32.896L33.9291 33.2539L34.4811 34.6939L35.4149 34.336ZM34.8629 32.896V33.896H53.4149V32.896V31.896H34.8629V32.896ZM53.4149 32.896H52.4149V36.976H53.4149H54.4149V32.896H53.4149ZM53.4149 36.976V35.976H30.4469V36.976V37.976H53.4149V36.976Z" fill="#3B241E" mask="url(#path-1-outside-1_162_881)"/>
</svg>
